<?xml version="1.0" standalone="no"?>
<!DOCTYPE svg PUBLIC "-//W3C//DTD SVG 20010904//EN"
 "http://www.w3.org/TR/2001/REC-SVG-20010904/DTD/svg10.dtd">
<svg version="1.0" xmlns="http://www.w3.org/2000/svg"
 width="512.000000pt" height="512.000000pt" viewBox="0 0 512.000000 512.000000"
 preserveAspectRatio="xMidYMid meet">

<g transform="translate(0.000000,512.000000) scale(0.100000,-0.100000)"
fill="#000000" stroke="none">
<path d="M2375 5114 c-379 -39 -652 -114 -954 -265 -267 -133 -469 -279 -678
-490 -207 -209 -342 -398 -472 -660 -185 -371 -266 -717 -266 -1139 0 -422 81
-768 266 -1139 130 -262 265 -451 472 -660 209 -211 411 -357 678 -490 255
-127 512 -207 794 -247 180 -26 510 -26 690 0 566 80 1074 335 1472 737 207
209 342 398 472 660 185 371 266 717 266 1139 0 422 -81 768 -266 1139 -130
262 -265 451 -472 660 -209 211 -411 357 -678 490 -355 177 -688 258 -1089
266 -107 1 -213 1 -235 -1z m-15 -1430 c30 -12 152 -132 520 -512 265 -272
489 -509 498 -526 21 -41 21 -141 0 -181 -9 -16 -233 -251 -497 -521 -369
-378 -490 -495 -521 -508 -157 -63 -314 71 -278 238 12 56 23 69 413 466 121
124 262 268 313 321 l94 96 -396 408 c-217 224 -403 424 -412 444 -35 72 -14
181 48 238 55 52 144 67 218 37z"/>
</g>
</svg>
